ply
format ascii 1.0
element vertex 667
property float x
property float y
property float z
property uchar diffuse_red
property uchar diffuse_green
property uchar diffuse_blue
end_header
-23.418421 15.497409 41.701883 102 103 123
-4.461804 2.736902 15.375956 192 194 181
-4.397982 3.287350 15.401637 121 132 128
-4.323948 3.254438 15.383687 85 87 84
-4.276173 3.298767 15.266520 123 119 120
-4.193079 2.842106 15.100664 39 52 87
-4.196609 2.777000 15.293468 47 57 59
-4.252781 2.766229 15.631976 156 164 167
-3.666426 2.906587 14.538972 55 73 135
-3.636708 2.745304 15.268505 71 75 78
-129.731505 123.015554 547.958689 89 82 134
-14.314507 14.630996 64.212948 72 73 127
-3.042723 2.960776 13.923349 186 172 187
-2.958276 3.016389 13.745293 23 38 81
-3.243071 2.479647 15.444974 83 94 96
-2.930732 2.505811 15.230030 144 142 119
-2.565255 2.941245 13.683186 154 158 161
-2.427228 2.999952 13.180628 183 161 182
-2.419718 2.912011 13.749135 47 46 64
-2.419718 2.912011 13.749135 47 46 64
-2.263637 3.458320 13.190854 151 172 189
-2.221846 2.917851 13.667287 80 86 76
-2.221846 2.917851 13.667287 80 86 76
-2.061087 3.120110 12.857301 83 77 115
-2.629259 2.013682 16.763375 145 129 93
-1.975906 3.102982 12.779795 171 159 171
-1.886265 3.453061 12.711143 92 95 114
-1.670532 3.289215 12.479794 64 63 81
-1.807216 2.377024 13.545852 159 183 183
-2.197283 1.878350 16.602960 162 140 101
-1.770764 2.424148 13.551692 67 78 82
-1.770764 2.424148 13.551692 67 78 82
-2.131114 1.917527 16.554325 51 46 40
-1.666121 2.541165 13.543885 57 61 60
-1.622278 2.377417 13.564553 168 190 178
-1.617662 2.435160 13.548196 151 180 176
-1.543757 2.380094 13.533649 171 193 191
-1.809756 1.614993 16.591446 139 145 159
-1.737495 1.714217 16.404277 145 164 162
-1.432726 2.520058 13.528111 48 82 107
-1.373948 3.087906 12.967978 100 84 97
-1.617830 1.727932 16.449194 74 99 96
-1.617830 1.727932 16.449194 74 99 96
-1.258927 3.449451 12.923901 64 92 131
-1.595169 1.977692 16.672111 95 132 138
-1.235397 3.365634 12.958663 30 44 70
-1.255130 2.692525 13.519094 87 117 151
-1.145959 3.257268 12.993061 46 48 87
-1.146222 3.433528 13.030705 22 27 57
-1.322892 2.643754 15.629112 169 171 168
-1.104063 3.331284 13.045529 34 30 65
-1.104063 3.331284 13.045529 34 30 65
-1.102276 3.288317 13.076628 92 109 119
-1.102276 3.288317 13.076628 92 109 119
-1.082077 2.978964 13.780288 101 107 95
-1.068375 2.922673 13.958707 198 208 200
-1.135281 0.262293 15.247700 93 88 94
-1.027138 2.372737 15.329280 85 81 52
-0.870791 2.986058 13.728148 144 156 156
-0.936715 0.608251 15.251828 65 65 65
-0.959841 2.652518 15.574265 131 135 108
-0.940707 2.741397 15.218869 191 196 176
-0.911365 -0.112164 14.985771 54 63 62
-0.911365 -0.112164 14.985771 54 63 62
-0.937642 2.380633 15.368514 58 81 75
-0.894483 -0.809983 15.251090 196 187 170
-0.761219 2.904746 13.884760 206 217 201
-0.816292 0.491911 15.033391 132 150 152
-0.752665 2.893778 14.021460 160 158 159
-0.749929 0.004792 14.827252 170 180 169
-0.752729 2.749848 15.195534 78 76 64
-0.731721 2.704436 15.199466 136 138 114
-0.725111 1.102570 15.626450 50 54 55
-0.767677 -1.613517 17.458172 134 121 113
-0.559470 0.166149 14.749099 152 172 170
-0.515770 0.304557 14.750058 140 159 155
-0.491577 2.966939 13.979363 208 213 207
-0.384428 0.809709 14.992770 35 36 41
-0.387272 2.486832 15.248696 68 70 69
-0.343995 -0.244640 14.584997 185 209 193
-0.343995 -0.244640 14.584997 185 209 193
-0.329627 3.593119 14.032126 16 30 67
-0.486418 -0.893128 22.407704 80 83 74
-0.368780 -0.193431 16.987320 122 125 116
-0.299599 -0.204327 14.582158 53 63 64
-0.266467 -1.263739 15.261520 234 241 225
-0.220692 0.772895 14.896961 42 47 51
-0.193553 0.492489 14.701118 53 57 66
-0.193553 0.492489 14.701118 53 57 66
-0.082011 1.321573 6.507182 108 105 96
-0.131485 2.592443 15.284694 74 75 69
-0.099549 3.201247 14.257559 48 48 60
-0.099142 3.329074 14.076131 75 101 116
-0.094498 2.549010 15.283316 209 217 219
-0.060499 3.286643 14.089016 39 47 86
-0.060499 3.286643 14.089016 39 47 86
-0.032104 -0.074924 14.486189 138 142 119
-0.032104 -0.074924 14.486189 138 142 119
-0.004300 -0.004540 14.481287 130 136 132
0.018700 3.212343 14.178005 109 104 108
0.018700 3.212343 14.178005 109 104 108
0.097590 -0.294057 14.517055 201 213 191
0.097590 -0.294057 14.517055 201 213 191
0.112423 0.886912 14.953933 65 89 89
0.127050 2.473544 15.881527 110 107 90
0.119576 0.459583 14.643167 45 55 57
0.261804 3.246763 14.522451 82 70 106
0.261804 3.246763 14.522451 82 70 106
0.261804 3.246763 14.522451 82 70 106
0.274530 -1.120151 15.015350 152 156 142
0.317446 0.062940 14.545186 141 129 103
0.322891 0.410586 14.691420 136 166 166
0.401258 -0.280693 14.554865 62 65 58
0.480457 -1.295304 15.589023 192 175 159
0.471917 0.028223 14.598200 140 125 102
0.471917 0.028223 14.598200 140 125 102
0.543755 2.812161 16.119151 52 56 57
0.521253 0.709119 14.840866 31 37 49
0.590327 -1.066148 15.090259 206 215 188
0.578413 -0.330265 14.612459 157 140 120
0.684315 -1.806047 15.821331 115 105 103
0.676538 0.711010 14.905027 32 49 59
0.709431 0.548355 14.850896 35 43 62
0.733231 0.436675 14.787138 29 39 41
0.733231 0.436675 14.787138 29 39 41
0.759990 0.078367 14.682052 35 40 34
0.777701 -0.572704 14.806758 184 158 135
0.852101 2.776677 15.840884 134 123 95
0.807509 -0.324758 14.726566 157 137 126
0.880032 -0.226225 14.847441 95 69 72
0.982784 -1.110215 15.584864 116 97 101
0.982784 -1.110215 15.584864 116 97 101
0.980132 0.435686 14.987341 32 43 65
0.980132 0.435686 14.987341 32 43 65
0.997943 3.303994 15.257209 18 25 41
1.059855 -0.730730 15.296289 159 124 102
1.031924 0.095850 14.920644 38 38 46
1.031924 0.095850 14.920644 38 38 46
1.031924 0.095850 14.920644 38 38 46
1.042392 0.416963 15.058348 99 118 125
1.033946 -0.267392 14.808526 46 42 41
1.077879 3.257137 15.309585 28 39 61
0.484489 1.536676 6.883432 28 39 61
1.073863 0.145983 14.959516 119 110 103
0.430400 0.948406 5.400730 89 64 68
1.284288 1.647371 15.395913 111 102 105
1.296477 2.311185 15.485466 175 186 172
0.284541 0.407462 3.343283 91 83 107
1.314189 1.934966 15.454835 94 89 109
0.286563 0.396286 3.334782 109 99 123
1.369832 -1.498303 15.071372 99 78 75
1.402635 -1.555189 14.938078 141 135 101
1.512371 0.442523 15.523734 147 168 173
1.503629 -0.534599 15.057032 80 73 81
1.615715 2.435836 15.824816 63 94 123
1.555762 -1.067243 15.065565 99 84 79
1.801942 -1.371542 15.266932 87 89 88
1.842467 -0.528705 15.477007 103 87 88
1.957893 -1.185655 15.440067 216 204 180
-4.582158 2.745476 15.778033 161 166 162
-4.231500 2.756006 15.568790 156 164 167
-4.170127 2.718278 16.003614 59 57 71
-3.797542 3.344662 14.911217 86 77 96
-3.605853 2.778898 15.136456 178 187 196
-3.483893 2.749953 15.224384 29 27 28
-3.483893 2.749953 15.224384 29 27 28
-3.265951 2.853269 14.545165 175 169 179
-3.361868 2.800219 15.314133 156 157 161
-3.035514 3.373523 13.911264 71 67 81
-2.823731 3.271276 13.688098 102 122 133
-2.629643 3.169127 13.510834 113 131 151
-2.725165 2.567857 15.116280 60 62 74
-2.638026 2.580141 15.202239 100 106 106
-2.363927 2.934443 13.758257 158 163 169
-2.653620 2.370038 16.787914 106 93 77
-2.640267 2.230444 16.777954 147 118 86
-2.630503 1.851504 16.839278 164 138 103
-1.981254 3.649613 12.774555 55 52 95
-2.581826 2.130941 16.777681 156 133 92
-1.843142 3.110089 12.565553 184 176 191
-1.783867 3.231507 12.518071 76 73 116
-1.751284 3.186432 12.515800 187 172 191
-1.819991 2.565214 13.516100 186 197 193
-1.775601 2.955173 13.556187 123 114 119
-1.671364 3.097127 12.797546 161 143 155
-1.704796 2.321514 13.526129 49 71 112
-1.637561 2.383017 13.059819 165 187 185
-2.031124 1.740946 16.569623 174 175 169
-1.971842 1.690050 16.555193 136 133 114
-1.559261 3.036340 13.126803 152 146 156
-1.569130 2.458917 13.545515 40 54 65
-1.569130 2.458917 13.545515 40 54 65
-1.533880 2.970865 13.601328 119 115 103
-1.488185 2.241770 13.627797 133 161 183
-1.792522 2.089774 16.493293 66 68 67
-1.738217 1.672312 16.543178 59 90 84
-1.207667 3.290044 12.963691 34 48 75
-1.184779 2.973863 13.652013 73 74 79
-1.150360 2.739858 13.609813 203 220 212
-1.083540 3.616398 13.268021 14 23 64
-1.044979 2.310562 15.452102 175 175 149
-0.879731 2.946336 13.791190 44 50 40
-0.834277 3.318650 13.373724 89 81 118
-0.838666 -0.647543 15.085393 198 203 173
-0.841206 2.727596 15.288108 50 53 44
-0.799350 -0.717061 15.063382 208 217 198
-0.687335 1.922089 16.174131 116 90 53
-0.637845 -1.095097 15.262548 208 198 186
-0.588242 0.211167 14.746660 63 74 68
-0.368545 2.492953 14.839188 194 185 154
-0.305292 2.996436 14.242422 59 47 47
-0.250095 2.856352 14.392992 193 201 188
-0.257761 2.655440 14.967942 26 71 51
-0.214117 1.683051 16.166642 32 42 33
-0.180783 2.899917 14.644373 41 40 38
-0.160509 -1.042794 14.948663 240 252 242
-0.130023 3.441402 14.116002 14 28 57
-0.089032 1.615603 15.943395 74 77 70
-0.081535 2.451307 15.233891 27 28 30
-0.074841 2.825099 14.853466 37 35 38
-0.054653 1.556245 15.897477 16 21 15
-0.019936 -1.809650 15.943514 106 105 101
-0.015824 -1.540915 16.130601 74 80 76
0.002434 -0.300565 14.561689 184 204 193
0.005889 -0.193904 14.512996 172 189 179
0.005889 -0.193904 14.512996 172 189 179
0.033752 -0.595550 14.582690 84 90 90
0.055005 -0.256239 14.549292 75 76 71
0.055005 -0.256239 14.549292 75 76 71
0.083920 0.120143 14.545981 57 69 59
0.083920 0.120143 14.545981 57 69 59
0.086843 0.665066 14.767424 125 147 160
0.103992 -1.170404 15.102349 230 244 231
0.103992 -1.170404 15.102349 230 244 231
0.138626 0.057654 14.550551 146 162 159
0.135859 0.734609 14.822991 52 58 58
0.281081 -1.339079 15.472226 196 174 160
0.324292 1.621107 15.610333 57 68 60
0.353882 -1.417457 15.883011 59 55 54
0.326570 -0.898455 14.796611 154 157 146
0.326570 -0.898455 14.796611 154 157 146
0.395747 -1.351309 15.895956 194 168 151
0.439578 -1.835897 16.105865 113 97 97
0.419693 0.703110 14.810121 31 36 40
0.435266 -1.180548 15.194802 207 214 198
0.428863 0.070138 14.569161 52 43 44
0.439815 0.433176 14.666519 31 45 54
0.439815 0.433176 14.666519 31 45 54
0.459023 -0.744295 14.733214 213 221 206
0.521064 0.076092 14.633254 46 40 50
0.573924 0.664859 14.829578 104 130 155
0.579397 0.029124 14.604260 106 122 111
0.579397 0.029124 14.604260 106 122 111
0.647142 0.613109 14.816425 113 141 165
0.704767 0.034282 14.677902 137 146 143
0.736174 3.174878 15.040252 45 49 76
0.782259 -1.069806 15.147868 176 185 154
0.767200 -0.670660 14.829510 179 148 127
0.812680 0.796149 15.158947 88 117 123
0.902786 -0.929731 15.308273 164 144 117
0.947570 -1.050466 15.596704 75 61 48
1.036696 3.107487 15.325113 67 62 84
1.240237 2.271967 15.453267 89 75 72
1.263654 3.088646 15.552351 103 82 101
1.340262 -0.437293 15.175752 111 93 93
1.538928 1.030634 16.724269 145 166 171
1.427696 -1.755248 14.977483 104 103 85
1.512470 1.580630 15.654085 121 143 154
1.575162 2.989250 15.928233 147 214 255
1.487913 -1.284671 14.959154 171 167 132
1.518483 -1.779903 14.898219 206 219 202
1.533764 -0.871246 15.051007 109 86 80
1.572192 -1.198147 15.020860 71 60 74
1.637649 0.268122 15.521298 144 161 168
1.662608 -0.036072 15.463888 140 156 156
1.717278 -0.808057 15.258828 115 131 131
-4.553553 3.024452 15.657350 112 132 139
-4.252911 2.769415 15.179431 182 197 218
-4.135937 2.673984 16.136458 165 228 255
-3.556133 3.338423 14.526989 71 65 77
-3.718132 2.661580 16.126519 142 139 156
-3.336247 2.588686 15.229321 187 183 154
-2.968946 3.310203 13.809337 134 152 152
-2.968946 3.310203 13.809337 134 152 152
-3.230456 2.612741 15.315207 27 34 40
-2.803177 3.135658 13.622335 81 93 115
-2.753498 3.317770 13.627821 26 39 56
-2.634008 2.749825 13.409791 155 158 167
-2.634008 2.749825 13.409791 155 158 167
-2.634853 2.930299 13.690411 52 48 47
-2.306361 3.481819 13.142204 56 50 62
-1.471366 2.450852 9.046448 46 58 106
-1.978251 3.252637 12.782576 130 156 169
-1.894762 3.262792 12.684856 132 160 171
-1.966163 2.702593 13.585098 94 123 163
-0.271020 0.075727 2.027602 52 52 60
-2.326857 1.897312 16.687216 63 57 57
-1.945648 2.294933 13.927994 152 176 202
-1.742364 3.099472 12.637203 170 153 169
-1.742364 3.099472 12.637203 170 153 169
-5.362870 6.203366 41.005266 89 171 253
-1.720979 2.558014 13.529809 175 198 190
-1.713301 2.394301 13.553882 175 196 191
-1.687836 2.602684 13.398880 77 105 126
-1.629072 2.588809 13.525070 178 201 193
-1.507259 1.873596 16.252623 176 198 212
-25.751307 40.681112 295.019454 70 78 63
-1.357249 2.395842 15.941464 76 77 71
-1.357249 2.395842 15.941464 76 77 71
-1.256110 -0.331696 15.459770 180 194 179
-1.027774 3.081796 13.253947 93 75 89
-1.203964 2.480208 15.798032 103 107 92
-1.108735 2.643890 15.573843 73 68 65
-0.860110 3.135727 13.425044 122 101 108
-1.020405 2.010788 16.003817 149 154 150
-0.891410 0.854069 15.447136 128 142 129
-0.709971 0.483687 14.959005 142 156 156
-0.668774 2.364650 15.218105 64 103 102
-0.642818 -0.173201 14.807190 98 99 101
-0.382345 0.456576 14.662601 148 168 167
-0.326949 2.666347 14.980268 101 146 139
-0.299864 -1.898258 16.835134 125 109 109
-0.304329 1.903490 16.574121 45 47 44
-0.289064 -1.480688 16.281181 38 41 50
-0.247774 2.896067 14.211733 58 61 52
-0.155329 1.742371 16.292738 26 28 27
-0.135165 -0.644592 14.674574 205 213 200
-0.099632 3.053066 14.213114 50 56 54
-0.072406 -1.167729 15.091100 227 238 224
-0.072406 -1.167729 15.091100 227 238 224
-0.075812 2.439774 15.153022 27 28 30
-0.047816 -0.808418 14.706585 196 208 184
-0.039830 -0.549134 16.781377 192 203 189
-0.031516 0.836657 14.912668 93 103 95
0.081470 0.804749 14.684732 97 114 104
0.097630 1.707288 15.708772 20 18 19
0.247115 2.565234 15.862875 12 21 18
0.247115 2.565234 15.862875 12 21 18
0.385516 3.439898 14.610971 58 81 97
0.580928 3.121209 14.861971 100 105 99
0.585036 -0.837420 14.867415 195 171 145
0.646796 -1.200831 15.536028 190 202 180
0.607554 -0.699711 14.697349 193 175 155
0.663015 -1.295742 15.805774 57 55 56
0.756499 -1.234142 15.721152 73 64 65
0.780149 -1.083184 15.298537 175 173 150
0.907941 2.903362 15.582228 46 48 43
0.980696 3.178429 15.244886 51 49 62
1.097850 3.373359 15.326524 78 88 97
1.124129 -0.463553 15.129394 132 105 86
1.240667 2.274160 15.478572 89 75 72
1.298462 2.415006 15.504956 63 87 111
1.299688 -1.766568 15.076566 87 90 73
1.386649 2.724246 15.711522 117 144 155
1.443612 -0.937293 15.097140 136 117 121
1.571354 3.535560 15.923626 123 203 252
1.745451 -1.038009 15.343088 138 153 156
-4.654960 2.944726 15.667345 156 225 254
-4.616635 2.812337 15.584769 101 128 155
-4.250287 2.768012 15.167245 182 197 218
-2.911464 3.214629 13.751697 64 76 76
-2.814069 2.955267 13.670965 146 138 159
-2.725671 3.001934 13.488608 41 60 93
-2.169247 3.121819 12.918347 59 68 127
-2.169247 3.121819 12.918347 59 68 127
-2.057026 2.991013 13.397018 160 150 159
-1.846478 3.179610 12.580200 91 80 122
-1.967069 2.702756 13.589299 94 123 163
-1.905794 2.326774 13.580403 54 80 113
-1.862526 2.629742 13.476095 57 81 115
-1.716409 3.645942 12.560030 24 38 83
-1.504552 2.596330 13.506057 186 203 195
-1.482719 2.462664 13.531624 178 203 197
-1.336534 -0.396990 15.777532 134 126 124
-1.435492 0.955189 18.243238 102 93 98
-0.887346 2.570425 12.730318 213 224 216
-0.963959 2.152549 15.692811 33 69 43
-0.794246 3.408778 13.433648 25 28 45
-0.794246 3.408778 13.433648 25 28 45
-0.780727 -0.414259 14.900998 174 174 164
-0.717123 2.069189 16.197701 74 66 43
-0.626825 2.502709 15.078848 126 164 127
-0.258360 1.778170 16.322238 158 150 129
-0.209561 -0.000363 14.587116 168 181 171
-0.018190 2.465028 15.769546 115 114 96
0.077951 -1.343578 15.486886 201 183 163
0.070849 0.820691 14.852028 93 110 104
0.088964 1.725743 15.858583 16 16 16
0.079297 2.669951 15.738773 87 97 98
0.154929 -1.701836 16.463119 104 87 77
0.179141 -1.827836 16.370881 105 81 79
0.222616 0.787341 14.844506 77 105 109
0.610022 0.641819 14.972110 91 128 146
0.756156 -1.241155 15.739718 66 58 56
0.773367 2.849228 16.001705 31 30 26
0.864870 -1.004376 15.439657 170 149 120
0.981634 2.642984 15.636485 59 57 60
0.981634 2.642984 15.636485 59 57 60
0.949280 0.008543 14.859564 138 119 105
1.057627 -0.670775 15.216087 152 129 97
1.064926 0.554166 15.253864 109 123 110
1.098203 3.382892 15.376202 78 88 97
1.124016 -0.461862 15.118924 133 105 83
1.143675 0.643999 15.423409 26 26 28
1.363041 2.887291 15.731183 121 151 161
1.387444 2.731869 15.745147 117 146 160
1.589725 -1.705841 14.980675 100 107 89
1.591026 -1.482400 14.960002 101 106 83
1.702713 -1.555350 15.127023 134 149 146
1.965063 -1.713365 15.300020 118 118 90
-58.532898 -48.485733 131.484734 133 142 151
-58.532898 -48.485733 131.484734 133 142 151
-2.296863 0.790119 5.135911 74 73 87
-26.812642 -23.906351 70.966297 61 75 110
-26.915727 -23.197107 71.144877 63 86 120
-26.958777 -22.393056 71.172656 67 90 124
-26.600006 -25.347834 70.597652 72 78 114
-26.735445 -24.659670 70.858956 63 77 112
-19.479290 -1.520424 57.166614 105 121 147
-3.498165 2.977294 14.400414 62 67 109
-3.498165 2.977294 14.400414 62 67 109
-3.507596 2.641817 15.287038 176 179 160
-2.570795 2.978323 13.412778 154 147 155
-1.927810 3.144610 12.639754 81 75 113
-1.285831 2.575530 15.783565 53 55 50
-0.931089 3.094823 13.363658 150 134 144
-0.953673 2.481273 15.345807 30 41 35
-0.804227 2.424158 15.246335 143 175 154
-0.730832 1.566941 15.788000 77 60 53
-0.745304 -1.936295 17.367752 108 94 91
-0.441418 -0.274023 14.658916 181 192 175
-0.408009 2.023824 16.718685 96 109 115
-0.326923 0.423578 14.667607 155 175 174
-0.165331 2.817694 14.742654 192 201 182
0.021513 2.694230 15.211749 15 24 23
0.216282 1.661002 15.715853 90 97 89
0.228488 2.711775 15.974042 77 78 80
0.292502 3.543869 14.661236 24 28 63
0.197019 1.553539 6.140351 15 30 69
0.810203 -1.754486 15.617762 111 101 89
0.923978 0.829149 15.315214 70 98 101
1.149402 3.016501 15.566957 29 33 42
1.178404 -0.600509 15.294753 48 33 26
1.231654 -0.482958 15.335754 43 38 35
1.472027 2.994752 15.884262 30 32 45
1.553619 2.277773 15.812509 97 79 95
1.670764 -0.671922 15.327486 124 151 146
1.670764 -0.671922 15.327486 124 151 146
1.712470 -1.135883 15.284688 118 141 135
1.712470 -1.135883 15.284688 118 141 135
1.866308 -1.172384 15.409807 89 73 84
-22.884832 14.931112 40.800822 6 10 11
-21.740122 15.094612 40.432753 12 13 17
-25.262697 -19.716978 53.283685 157 164 183
-21.606815 -0.179078 50.400065 136 156 191
-21.606815 -0.179078 50.400065 136 156 191
-26.560857 -21.922576 71.962746 138 146 182
-25.322981 -22.269055 70.069899 51 69 107
-23.613388 -7.078155 65.449383 157 178 233
-24.570864 -25.622258 68.544114 48 62 109
-22.929362 -9.120970 64.503554 45 94 187
-22.929362 -9.120970 64.503554 45 94 187
-23.441411 -6.247375 65.862252 76 128 212
-20.580079 -4.326643 71.177623 101 152 209
-4.800134 3.133671 16.620916 60 103 146
-1.266584 2.620392 14.051771 70 93 111
-1.168494 2.329696 15.598954 27 47 36
-0.982387 2.277723 15.482605 185 183 158
-0.989153 1.772313 18.143207 82 64 50
-0.859634 2.036136 16.056422 33 30 25
-0.764130 -0.650483 14.980258 193 201 164
-0.764130 -0.650483 14.980258 193 201 164
-0.485802 -0.686210 14.845851 208 221 201
-0.476594 3.046906 13.904556 34 40 64
-0.418272 3.534113 13.834349 24 29 48
-0.416746 -0.432472 14.667479 183 191 167
-0.375777 0.771717 14.922851 81 71 72
-0.288475 0.632820 14.816275 132 156 158
-0.281859 2.370610 15.130986 194 199 179
-0.259480 2.539910 15.125013 26 26 28
0.127653 -1.001537 14.878877 230 242 228
0.327802 2.584116 16.188525 16 22 22
0.327802 2.584116 16.188525 16 22 22
0.315691 3.178122 14.605937 61 52 69
0.500219 -0.509927 14.628360 174 180 146
0.636798 -1.763400 15.835017 124 102 104
0.763790 3.491976 15.076062 12 34 73
0.767253 -0.751845 14.811156 185 157 135
0.861091 3.063607 15.129803 130 100 108
0.861091 3.063607 15.129803 130 100 108
0.962859 3.244959 15.217816 43 46 61
1.250457 3.441537 15.445610 24 36 76
1.282018 1.065506 15.302763 54 48 48
1.372692 2.304505 15.583735 134 165 170
1.707937 -0.510296 16.266184 132 151 149
-14.029909 8.054078 28.083479 85 92 85
-27.133380 -20.230822 57.026064 208 214 230
-31.542967 -21.777556 66.530045 167 170 203
-29.417056 -21.379994 62.854871 61 86 116
-28.967469 -21.659661 64.522261 157 172 205
-29.083840 -20.204122 77.445313 102 143 175
-28.471904 -16.729476 76.316812 118 145 156
-29.665415 -23.446565 80.409307 93 93 103
-24.312017 -24.920839 70.035383 156 166 201
-23.510032 -25.328211 67.932807 153 166 200
-16.863529 -0.792049 50.777022 131 144 163
-21.598565 -12.112848 71.089736 131 136 142
-19.927327 -4.894699 71.499667 181 190 221
-4.170898 3.330529 15.151591 52 50 90
-18.589149 -5.704731 69.059029 99 105 137
-18.100333 -10.218053 67.422111 84 100 136
-4.071853 2.839148 15.392166 165 149 159
-3.027232 3.148619 13.658777 142 173 167
-3.027232 3.148619 13.658777 142 173 167
-14.696461 -4.801051 69.735175 204 219 226
-13.322715 -3.755956 68.059342 129 159 157
-11.753362 -3.543831 69.044622 155 175 176
-4.919318 -10.835163 54.996419 166 159 133
-1.394052 1.951110 15.920722 128 166 167
-1.044111 3.246329 13.092926 63 55 92
-1.214653 2.104316 15.762179 105 135 137
-1.200436 1.902835 16.056549 68 58 49
-1.285891 1.873840 17.605083 199 170 128
-1.035539 0.072362 15.148103 158 169 161
-0.806997 3.543939 13.449660 26 24 48
-0.499142 2.753924 15.111234 24 35 27
-0.369923 0.772913 14.858560 66 65 63
-0.006226 0.615850 14.757166 129 155 154
0.192249 -0.747836 14.685205 208 222 205
0.427689 0.116262 14.606253 73 66 58
0.427689 0.116262 14.606253 73 66 58
0.581884 0.288719 14.633342 147 162 165
0.581884 0.288719 14.633342 147 162 165
0.748930 0.837899 14.816794 79 101 125
1.083447 -0.889476 15.389894 70 52 52
1.149166 2.169195 15.300220 76 56 57
1.448477 1.246701 15.550987 141 162 167
1.903027 -1.601756 15.213253 116 119 100
-31.645781 -19.942260 58.061277 163 171 190
-22.372121 14.912890 41.179625 107 118 138
-22.372121 14.912890 41.179625 107 118 138
-26.828361 -13.273611 71.794744 106 167 185
-27.277683 -5.263784 72.851531 213 220 239
-23.937430 -3.718805 66.906652 44 66 149
-24.219573 -22.021891 69.759744 163 171 208
-24.219573 -22.021891 69.759744 163 171 208
-22.408841 -14.408269 66.098000 143 152 169
-23.223859 -22.479070 70.075359 51 65 102
-24.457411 -17.479742 79.471703 99 105 101
-4.678720 3.077133 15.627396 159 226 255
-17.939938 -18.513200 62.092750 156 165 182
-17.792588 -13.109796 65.843912 108 113 116
-15.652290 -4.085011 69.771047 136 185 130
-13.605661 -0.100221 61.049622 248 252 255
-12.509537 -0.741353 60.940591 75 86 92
-2.572498 3.345656 13.582935 121 149 137
-9.873856 -19.273514 57.504921 216 231 238
-12.234386 -6.822512 72.512784 60 81 84
-9.305870 -11.604159 57.332210 160 160 172
-2.739750 2.098571 16.753001 162 227 255
-1.959096 3.365073 12.764199 117 129 151
-1.959096 3.365073 12.764199 117 129 151
-1.292195 0.005215 15.551848 134 123 121
-1.397756 1.652599 18.162398 95 73 75
-0.832276 2.644061 15.308985 48 51 42
-0.546732 2.111798 16.089288 17 18 20
-0.130925 -0.369000 14.571950 175 184 163
-0.130925 -0.369000 14.571950 175 184 163
-0.061587 0.301047 14.610064 158 176 178
0.018418 1.859160 15.985915 15 27 23
0.220171 -0.421147 14.568343 184 197 180
1.413164 3.412452 15.784362 38 52 91
-46.755981 -11.375199 90.901488 58 94 168
-24.233244 0.203422 47.573390 249 252 255
-26.794757 -19.665409 54.105381 129 140 158
-34.704093 -11.223786 73.913302 54 165 236
-32.280386 -7.312877 70.176167 55 73 207
-32.280386 -7.312877 70.176167 55 73 207
-27.161531 -21.002775 66.285436 68 129 220
-21.909184 -13.562361 66.561754 246 251 255
-19.496003 -20.005403 67.188498 158 167 182
-17.421229 -19.809640 62.800400 84 83 99
-17.421229 -19.809640 62.800400 84 83 99
-14.597243 -0.099124 56.274995 248 252 255
-15.573554 -6.783654 74.849032 135 186 109
-2.806785 3.416798 13.574960 84 81 112
-2.762253 3.123725 13.594849 48 63 84
-2.762253 3.123725 13.594849 48 63 84
-10.148726 -12.312344 60.624834 154 175 168
-2.011422 2.022488 13.176060 236 243 236
-1.973737 2.886393 13.766369 34 44 54
-1.865583 2.298169 16.206998 209 231 244
-1.470712 2.389948 12.697389 153 165 161
-1.421471 2.324747 15.799554 34 33 28
-1.224608 0.281005 15.719192 125 114 112
-0.678803 -0.222443 14.788408 135 129 105
0.896557 3.376748 15.071300 36 49 83
1.249303 -1.635197 15.180911 79 81 76
-28.082487 -0.904703 53.425799 78 84 100
-28.082487 -0.904703 53.425799 78 84 100
-28.050531 -18.850478 54.556799 224 236 250
-46.400290 -11.322570 90.225893 51 98 170
-33.989493 -11.049118 72.436778 43 166 234
-31.948409 -7.251085 69.477086 49 72 204
-31.948409 -7.251085 69.477086 49 72 204
-35.776514 -31.831736 87.636698 42 58 73
-29.155233 -22.574431 70.977470 61 125 222
-30.021965 -9.787210 77.995997 166 204 225
-20.651425 -0.468290 54.619772 18 32 35
-20.651425 -0.468290 54.619772 18 32 35
-17.184915 -1.559200 47.547769 250 251 255
-23.333901 -22.302868 71.481242 68 90 114
-23.642678 -13.333150 73.746320 30 68 153
-2.823892 2.752420 13.769615 146 154 156
-12.643457 -5.315137 70.472623 223 239 254
-1.901976 2.817359 13.435291 24 34 44
-2.237224 1.612039 16.845738 168 229 255
-1.536796 3.084558 13.132967 95 80 99
-1.536796 3.084558 13.132967 95 80 99
-1.388411 2.853496 13.679877 48 58 70
-1.742235 1.584927 18.000118 165 229 254
-0.478008 2.872822 14.246037 202 209 201
-0.010642 -1.618645 16.178110 38 29 24
0.299771 3.368437 14.341727 53 58 77
0.497758 3.076049 14.841987 94 89 70
0.831310 0.647015 15.171077 96 130 142
0.896635 3.374510 15.056435 30 45 84
-37.976827 -10.262142 79.622430 253 252 255
-2.825861 3.294451 13.639903 83 104 121
-2.462671 3.083767 14.208617 154 163 162
-2.370203 2.073524 16.616534 59 71 67
-2.370203 2.073524 16.616534 59 71 67
-174.421954 -249.394807 1271.575197 24 39 58
-1.585552 3.149021 13.383851 96 68 82
-1.585552 3.149021 13.383851 96 68 82
-0.994020 2.811234 14.503329 218 232 217
0.071960 2.269916 16.593128 21 34 27
-52.223876 -32.506371 104.821221 100 117 173
-22.569007 -18.723594 53.395301 56 77 142
-26.709840 -2.830684 68.283782 240 252 252
-26.709840 -2.830684 68.283782 240 252 252
-18.643735 -21.198870 61.178287 215 226 254
-18.643735 -21.198870 61.178287 215 226 254
-7.119483 -13.482436 57.410204 229 241 255
-1.558370 3.461959 12.651193 46 58 98
-0.973696 -1.526230 16.723253 91 80 84
-0.351939 3.414040 14.199448 53 51 88
-0.096541 0.467010 14.815633 145 171 170
-16.654208 -0.797526 54.051517 59 76 84
-4.117270 3.092821 15.123864 141 160 175
-4.117270 3.092821 15.123864 141 160 175
-5.878808 -11.591362 48.664019 233 241 254
0.092986 -0.898187 15.584393 212 223 209
0.092986 -0.898187 15.584393 212 223 209
-61.423044 -22.124176 124.001970 72 138 225
-15.177285 -10.845385 61.267749 208 224 237
-2.935388 -14.847629 54.082506 174 163 135
-4.113422 -1.727295 31.732690 242 244 241
-2.089425 0.936912 17.627488 233 247 248
1.296169 -1.072426 15.392839 114 96 94
-61.881256 -29.227481 160.435095 122 218 240
-4.164899 2.622504 10.738438 160 227 254
-20.692496 -4.518014 63.603511 31 75 162
-20.692496 -4.518014 63.603511 31 75 162
-3.370846 0.724556 19.690618 237 247 248
-2.163285 3.269098 14.618549 114 96 96
-2.163285 3.269098 14.618549 114 96 96
